<svg xmlns="http://www.w3.org/2000/svg" viewBox="0 0 128 128"><path d="M2.9 58.5l32.6-31.9s1-1 2.2-1.6c1.2-.7 3-.6 3-.6l10.5.3 5.2-8.8s1.5-2.2 2.6-2.9c1.1-.7 4.6-1.4 4.6-1.4L107.3.2s2.8-.6 4.8.5 2.6 2.8 2.6 2.8l12.9 46.2s.5 1.4.5 2.8-.8 2.5-.8 2.5l-5.3 9.1 5.6 9.5s.5.9.6 2.3c0 1.4-.2 2.2-.2 2.2l-12.9 46.1s-.5 1.8-2 2.7c-1.6 1-3.5 1.1-3.5 1.1l-48.3-12.2s-1.7-.5-2.8-1.2c-1.1-.7-1.9-2.3-1.9-2.3l-5.1-8.7-12.2.1s-.6-.1-1.7-.5-.9-.5-.9-.5L1 67.7s-1-1-1-4.2 2.9-4.9 2.9-4.9z" fill="#fff"/><path d="M5.8 64l34.6-33.8 14.4.2 6.9-12.2 47.6-12.4 12.9 46-7.4 12.4 7.3 11.9-12.7 46.3L62 109.9 55 98l-14.5.1z"/><path d="M29.3 58l26.4-26.2 36.5-9.1-20.8 35.2m31.1-29.5L81.3 63.7 102.5 99l10.1-35.3m-83.2 5.7h42l21 35.1-36.5-9z" fill="#fff"/></svg>
